<?xml version="1.0" encoding="utf-8"?><!-- Uploaded to: SVG Repo, www.svgrepo.com, Generator: SVG Repo Mixer Tools -->
<svg fill="#000000" width="800px" height="800px" viewBox="0 0 30 30" xmlns="http://www.w3.org/2000/svg"><path d="M14.474 10.002c-1.1 0-2.157.462-2.966 1.195-.925.84-1.508 2.047-1.508 3.294 0 .665 1 .688 1 .024 0-.965.466-1.93 1.182-2.58.627-.57 1.47-.908 2.318-.934.655 0 .672-.998-.026-.998zM15 8c-3.86 0-7 3.14-7 7s3.14 7 7 7 7-3.14 7-7-3.14-7-7-7zm0 1c3.32 0 6 2.68 6 6s-2.68 6-6 6-6-2.68-6-6 2.68-6 6-6zm0-3c-4.883 0-8.625 1.953-11.13 4.02-1.254 1.033-2.2 2.095-2.843 2.968-.32.437-.565.826-.736 1.15-.17.325-.29.52-.29.862 0 .34.12.537.29.86.172.326.416.715.737 1.152.642.873 1.59 1.935 2.842 2.968C6.374 22.047 10.116 24 15 24c4.883 0 8.625-1.953 11.13-4.02 1.254-1.033 2.2-2.095 2.843-2.968.32-.437.565-.826.736-1.15.17-.325.29-.52.29-.862 0-.34-.12-.537-.29-.86-.172-.326-.416-.715-.737-1.152-.642-.873-1.59-1.935-2.842-2.968C23.626 7.953 19.884 6 15 6zm0 1c4.617 0 8.125 1.838 10.494 3.79 1.185.978 2.082 1.984 2.674 2.79.296.403.515.758.656 1.024.175.327.136.55 0 .792-.147.263-.36.62-.656 1.024-.592.806-1.49 1.812-2.674 2.79C23.124 21.16 19.617 23 15 23s-8.125-1.838-10.494-3.79c-1.185-.978-2.082-1.984-2.674-2.79-.296-.403-.51-.76-.656-1.024-.14-.25-.17-.485 0-.792.145-.264.36-.62.656-1.024.592-.806 1.49-1.812 2.674-2.79C6.876 8.84 10.383 7 15 7z"/></svg>